<?xml version="1.0" standalone="no"?>
<!DOCTYPE svg PUBLIC "-//W3C//DTD SVG 20010904//EN"
 "http://www.w3.org/TR/2001/REC-SVG-20010904/DTD/svg10.dtd">
<svg version="1.0" xmlns="http://www.w3.org/2000/svg"
 width="300.000000pt" height="300.000000pt" viewBox="0 0 300.000000 300.000000"
 preserveAspectRatio="xMidYMid meet">

<g transform="translate(0.000000,300.000000) scale(0.100000,-0.100000)"
fill="#000000" stroke="none">
<path d="M1250 2974 c-315 -47 -582 -185 -815 -419 -178 -180 -319 -419 -374
-635 -43 -168 -54 -284 -48 -478 5 -182 25 -298 77 -453 80 -239 266 -501 476
-670 l62 -49 87 0 88 0 -41 28 c-146 98 -307 250 -410 387 -63 84 -161 280
-196 391 -47 154 -60 246 -60 424 1 128 6 187 22 263 65 295 187 522 397 732
204 205 424 322 728 387 81 17 135 21 262 21 185 0 301 -20 462 -79 54 -20
124 -39 157 -41 68 -6 152 5 140 17 -20 20 -175 91 -260 119 -202 68 -515 91
-754 55z"/>
<path d="M2261 2683 c381 -259 608 -630 651 -1060 20 -204 -13 -433 -91 -635
-127 -327 -379 -604 -684 -753 -216 -105 -395 -148 -622 -148 -182 0 -295 18
-455 74 -122 44 -204 55 -280 41 l-45 -8 92 -47 c109 -55 207 -90 341 -120
135 -29 486 -32 637 -3 294 55 549 190 765 407 210 210 340 448 401 731 26
119 37 405 20 531 -17 125 -64 303 -105 399 -89 207 -268 440 -442 579 l-62
49 -87 0 -87 0 53 -37z"/>
<path d="M1440 2663 c-302 -23 -561 -143 -766 -355 -138 -143 -223 -282 -278
-456 -176 -558 70 -1153 584 -1412 180 -90 323 -124 530 -124 326 0 585 104
819 329 583 561 433 1533 -294 1897 -172 86 -411 135 -595 121z m243 -279 c85
-17 195 -60 278 -107 113 -65 110 -54 38 -144 -34 -43 -64 -80 -65 -82 -2 -2
-50 20 -106 48 -130 65 -218 85 -348 78 -174 -9 -319 -77 -456 -212 -130 -129
-183 -263 -184 -463 0 -102 20 -217 50 -288 59 -137 219 -289 361 -342 143
-53 339 -68 440 -33 61 21 171 74 211 102 l26 19 67 -86 c37 -48 63 -90 58
-95 -30 -30 -186 -111 -265 -137 -126 -42 -223 -56 -331 -48 -380 26 -714 279
-820 622 -51 161 -55 346 -12 515 26 101 106 254 182 348 81 100 171 171 288
229 188 93 381 118 588 76z m681 -592 c48 -164 55 -373 18 -527 -13 -49 -26
-96 -31 -103 -12 -20 -205 65 -197 87 64 198 62 335 -8 492 -5 12 13 24 86 56
51 23 98 42 105 42 7 1 19 -21 27 -47z m-418 -111 c-3 -5 -85 -53 -181 -106
-96 -54 -175 -101 -175 -105 0 -20 -53 -69 -80 -75 -60 -13 -130 45 -130 107
0 32 35 86 65 100 19 8 38 8 77 -1 51 -12 61 -10 238 37 102 28 186 51 188 51
2 1 1 -3 -2 -8z"/>
</g>
</svg>
